<?xml version="1.0" encoding="UTF-8" standalone="no"?>
<svg
   xmlns:dc="http://purl.org/dc/elements/1.1/"
   xmlns:cc="http://creativecommons.org/ns#"
   xmlns:rdf="http://www.w3.org/1999/02/22-rdf-syntax-ns#"
   xmlns:svg="http://www.w3.org/2000/svg"
   xmlns="http://www.w3.org/2000/svg"
   xmlns:sodipodi="http://sodipodi.sourceforge.net/DTD/sodipodi-0.dtd"
   xmlns:inkscape="http://www.inkscape.org/namespaces/inkscape"
   height="128"
   width="128"
   inkscape:version="1.0 (4035a4f, 2020-05-01)"
   sodipodi:docname="logo.svg"
   version="1.1"
   id="svg2"
   viewBox="0 0 128 128">
  <sodipodi:namedview
     inkscape:document-rotation="0"
     inkscape:current-layer="svg2"
     inkscape:window-maximized="1"
     inkscape:window-y="0"
     inkscape:window-x="0"
     inkscape:cy="55.061832"
     inkscape:cx="47.65887"
     inkscape:zoom="2.7889185"
     showgrid="false"
     id="namedview17"
     inkscape:window-height="1019"
     inkscape:window-width="1920"
     inkscape:pageshadow="2"
     inkscape:pageopacity="0"
     guidetolerance="10"
     gridtolerance="10"
     objecttolerance="10"
     borderopacity="1"
     bordercolor="#666666"
     pagecolor="#ffffff" />
  <metadata
     id="metadata21">
    <rdf:RDF>
      <cc:Work
         rdf:about="">
        <dc:format>image/svg+xml</dc:format>
        <dc:type
           rdf:resource="http://purl.org/dc/dcmitype/StillImage" />
        <dc:title />
      </cc:Work>
    </rdf:RDF>
  </metadata>
  <defs
     id="defs3051">
    <style
       id="current-color-scheme"
       type="text/css">
      .ColorScheme-Text {
        color:#31363b;
      }
      </style>
  </defs>
  <g
     style="stroke-width:1.14821"
     transform="matrix(3.2916782,0,0,3.2916782,-3190.2751,-992.50856)"
     id="g1703"
     inkscape:export-filename="/home/quique/mockup-c.png"
     inkscape:export-xdpi="96"
     inkscape:export-ydpi="96">
    <circle
       inkscape:export-ydpi="96"
       inkscape:export-xdpi="96"
       r="18.690664"
       cy="320.9635"
       cx="988.63708"
       id="path817-6-67"
       style="vector-effect:none;fill:#272727;fill-opacity:1;stroke:none;stroke-width:0.911396;stroke-linecap:round;stroke-linejoin:bevel;stroke-miterlimit:4;stroke-dasharray:none;stroke-dashoffset:0;stroke-opacity:1;paint-order:normal" />
    <path
       style="color:#000000;display:inline;overflow:visible;visibility:visible;fill:#ffffff;fill-opacity:1;fill-rule:nonzero;stroke:none;stroke-width:1.08056;stroke-linecap:square;stroke-linejoin:miter;stroke-miterlimit:4;stroke-dasharray:none;stroke-opacity:1;marker:none;enable-background:accumulate"
       d="m 988.37799,312.39199 c 0.031,0.65882 0.1258,1.31775 0.046,1.97654 l -3.2637,-1.33308 c 0.4154,0.45353 0.7848,0.90745 1.0599,1.36125 -3.63991,0.14848 -6.67811,2.88032 -7.18711,6.51693 -0.3626,0.0742 -0.8296,0.0936 -1.8787,-0.0618 0.2282,6.54569 5.8372,8.67975 9.36991,8.68415 3.3918,-0.0795 6.752,-2.58212 7.4347,-6.15007 0.5843,0.23856 1.2039,0.36209 1.8289,0.36445 2.8722,0 5.20061,-2.50315 5.20061,-5.59062 0,-3.08804 -2.32831,-5.5911 -5.20061,-5.5911 -2.0351,0 -3.8802,1.27947 -4.725,3.26557 l -2.6849,-3.4432 z m -11.80381,6.00024 c -0.015,0 -0.029,0 -0.043,0.018 -0.2332,0.0618 -0.3146,0.51951 -0.1818,1.0224 0.1328,0.50343 0.4294,0.86132 0.6626,0.79984 0.2332,-0.06 0.3146,-0.51937 0.1819,-1.02257 -0.1234,-0.46787 -0.3912,-0.81649 -0.6193,-0.80621 z"
       id="path4136-4-4"
       inkscape:connector-curvature="0"
       sodipodi:nodetypes="cccccccccsscccccccccc" />
  </g>
</svg>
