<?xml version="1.0" encoding="UTF-8" standalone="no"?>
<svg
   height="128"
   width="128"
   inkscape:version="1.1.2 (0a00cf5339, 2022-02-04)"
   sodipodi:docname="logo.svg"
   version="1.1"
   id="svg2"
   viewBox="0 0 128 128"
   xmlns:inkscape="http://www.inkscape.org/namespaces/inkscape"
   xmlns:sodipodi="http://sodipodi.sourceforge.net/DTD/sodipodi-0.dtd"
   xmlns:xlink="http://www.w3.org/1999/xlink"
   xmlns="http://www.w3.org/2000/svg"
   xmlns:svg="http://www.w3.org/2000/svg"
   xmlns:rdf="http://www.w3.org/1999/02/22-rdf-syntax-ns#"
   xmlns:cc="http://creativecommons.org/ns#"
   xmlns:dc="http://purl.org/dc/elements/1.1/">
  <sodipodi:namedview
     inkscape:document-rotation="0"
     inkscape:current-layer="svg2"
     inkscape:window-maximized="1"
     inkscape:window-y="0"
     inkscape:window-x="0"
     inkscape:cy="68.202683"
     inkscape:cx="81.640386"
     inkscape:zoom="1.9720632"
     showgrid="false"
     id="namedview17"
     inkscape:window-height="673"
     inkscape:window-width="1366"
     inkscape:pageshadow="2"
     inkscape:pageopacity="0"
     guidetolerance="10"
     gridtolerance="10"
     objecttolerance="10"
     borderopacity="1"
     bordercolor="#666666"
     pagecolor="#ffffff"
     inkscape:pagecheckerboard="0"
     inkscape:showpageshadow="false" />
  <metadata
     id="metadata21">
    <rdf:RDF>
      <cc:Work
         rdf:about="">
        <dc:format>image/svg+xml</dc:format>
        <dc:type
           rdf:resource="http://purl.org/dc/dcmitype/StillImage" />
      </cc:Work>
    </rdf:RDF>
  </metadata>
  <defs
     id="defs3051">
    <style
       id="current-color-scheme"
       type="text/css">
      .ColorScheme-Text {
        color:#31363b;
      }
      </style>
    <radialGradient
       inkscape:collect="always"
       xlink:href="#linearGradient6837"
       id="radialGradient6849"
       cx="1020.6744"
       cy="1090.9174"
       fx="1020.6744"
       fy="1090.9174"
       r="22.848402"
       gradientTransform="matrix(2.3874148,-1.1754891e-6,0,0.35301055,-2546.5716,-220.68565)"
       gradientUnits="userSpaceOnUse" />
    <linearGradient
       inkscape:collect="always"
       id="linearGradient6837">
      <stop
         style="stop-color:#0098dc;stop-opacity:0.30068338"
         offset="0"
         id="stop6833" />
      <stop
         style="stop-color:#0098dc;stop-opacity:0.00911162"
         offset="1"
         id="stop6835" />
    </linearGradient>
    <filter
       inkscape:collect="always"
       style="color-interpolation-filters:sRGB"
       id="filter6814"
       x="-0.11774546"
       width="1.2354542"
       y="-0.21378023"
       height="1.3833785">
      <feGaussianBlur
         inkscape:collect="always"
         stdDeviation="1.0461937"
         id="feGaussianBlur6816" />
    </filter>
  </defs>
  <path
     transform="matrix(3.7795275,0,0,3.7795275,-3948.8565,-4029.9063)"
     sodipodi:nodetypes="cccccccccsscccccccccc"
     inkscape:connector-curvature="0"
     id="path4136-4-4-535-7"
     d="m 1021.7885,1073.1743 c 0.031,0.6589 0.1258,1.3178 0.046,1.9766 l -3.2637,-1.3331 c 0.4154,0.4535 0.7848,0.9075 1.0599,1.3613 -3.6399,0.1484 -6.6781,2.8803 -7.1871,6.5169 -0.3626,0.074 -0.8296,0.094 -1.8787,-0.062 0.2282,6.5457 5.8372,8.6797 9.3699,8.6841 3.3918,-0.079 6.752,-2.5821 7.4347,-6.15 0.5843,0.2385 1.2039,0.3621 1.8289,0.3644 2.8722,0 5.2006,-2.5031 5.2006,-5.5906 0,-3.088 -2.3283,-5.5911 -5.2006,-5.5911 -2.0351,0 -3.8802,1.2795 -4.725,3.2656 l -2.6849,-3.4432 z m -11.8038,6.0003 c -0.015,0 -0.029,0 -0.043,0.018 -0.2332,0.062 -0.3146,0.5195 -0.1818,1.0224 0.1328,0.5034 0.4294,0.8613 0.6626,0.7998 0.2332,-0.06 0.3146,-0.5194 0.1819,-1.0225 -0.1234,-0.4679 -0.3912,-0.8165 -0.6193,-0.8063 z"
     style="color:#000000;display:inline;overflow:visible;visibility:visible;fill:none;fill-opacity:1;fill-rule:nonzero;stroke:#0098dc;stroke-width:0.79375;stroke-linecap:square;stroke-linejoin:miter;stroke-miterlimit:4;stroke-dasharray:none;stroke-opacity:1;marker:none;filter:url(#filter6814);enable-background:accumulate"
     inkscape:export-xdpi="95.601662"
     inkscape:export-ydpi="95.601662" />
  <ellipse
     style="vector-effect:none;fill:url(#radialGradient6849);fill-opacity:1;stroke:none;stroke-width:1.77317;stroke-linecap:round;stroke-linejoin:bevel;stroke-miterlimit:4;stroke-dasharray:none;stroke-dashoffset:0;stroke-opacity:1;paint-order:normal"
     id="path817-6-67-7-5"
     cx="-112.75478"
     cy="165.2428"
     inkscape:export-xdpi="95.601662"
     inkscape:export-ydpi="95.601662"
     rx="86.356163"
     ry="20.187569" />
  <path
     sodipodi:nodetypes="cccccccccsscccccccccc"
     inkscape:connector-curvature="0"
     id="path4136-4-4-535-7-7"
     d="m 67.021235,26.185479 c 0.117165,2.490331 0.475464,4.980661 0.173858,7.470614 L 54.859849,28.617605 c 1.570016,1.714016 2.966173,3.429921 4.005921,5.145071 -13.757102,0.560882 -25.240062,10.886173 -27.163842,24.630803 -1.370456,0.279685 -3.135496,0.355275 -7.100598,-0.234331 0.862488,24.739653 22.061858,32.805165 35.413795,32.821795 12.819401,-0.298583 25.519369,-9.759118 28.099653,-23.244094 2.208378,0.901417 4.550173,1.368566 6.912378,1.377259 10.855554,0 19.655814,-9.460535 19.655814,-21.129826 0,-11.671181 -8.79988,-21.131716 -19.655814,-21.131716 -7.691717,0 -14.665323,4.835905 -17.858268,12.342425 L 67.021235,26.181322 Z M 22.408448,48.863778 c -0.05669,0 -0.109606,0 -0.162519,0.06803 -0.881386,0.234331 -1.18904,1.963465 -0.687119,3.864189 0.501922,1.902615 1.62293,3.255307 2.504315,3.022867 0.881386,-0.226772 1.18904,-1.963087 0.687496,-3.864567 -0.466393,-1.768441 -1.478551,-3.085985 -2.340661,-3.047433 z"
     style="color:#000000;display:inline;overflow:visible;visibility:visible;fill:none;fill-opacity:1;fill-rule:nonzero;stroke:#3daee9;stroke-width:3;stroke-linecap:square;stroke-linejoin:miter;stroke-miterlimit:4;stroke-dasharray:none;stroke-opacity:1;marker:none;enable-background:accumulate"
     inkscape:export-xdpi="95.601662"
     inkscape:export-ydpi="95.601662" />
  <path
     id="path2"
     style="fill:#3daee9;fill-opacity:1;stroke-width:0.357563"
     d="m 36.699911,96.646484 c -0.846701,0 -1.533203,0.686873 -1.533203,1.533204 v 0.002 10.181639 0.002 c 0,0.84597 0.686502,1.53321 1.533203,1.53321 0.846713,0 1.533203,-0.68724 1.533203,-1.53321 0,0 0,-0.002 0,-0.002 V 98.181641 c 0,0 0,-0.002 0,-0.002 0,-0.846332 -0.68649,-1.533204 -1.533203,-1.533204 z m 71.554689,3.0625 c -0.44178,0.0062 -0.87867,0.196123 -1.17774,0.566406 -0.53276,0.65828 -0.43099,1.62505 0.22656,2.1582 l 5.84376,4.73047 -6.39844,5.17774 c -0.65827,0.53208 -0.76166,1.49869 -0.22852,2.15625 0.30322,0.37509 0.74642,0.56836 1.19336,0.56836 0.33897,0 0.67863,-0.11066 0.96289,-0.33985 l 7.18555,-5.81836 7.18555,5.81836 c 0.28389,0.22958 0.62463,0.33985 0.96289,0.33985 0.44732,0 0.89052,-0.19398 1.19336,-0.56836 0.53241,-0.65756 0.42834,-1.62417 -0.22852,-2.15625 l -6.39844,-5.17774 5.84375,-4.73047 c 0.6579,-0.53315 0.75933,-1.49992 0.22657,-2.1582 -0.53171,-0.657568 -1.49798,-0.757721 -2.15626,-0.22461 l -6.6289,5.36524 -6.62891,-5.36524 c -0.28801,-0.233251 -0.6349,-0.344886 -0.97851,-0.341796 z M 3.9889736,99.734375 c -0.8467014,0 -1.5332032,0.687705 -1.5332031,1.535155 0,0.009 0.00391,0.019 0.00391,0.0293 h -0.00391 v 6.7832 c 0,3.8363 3.1214559,6.95703 6.9570312,6.95703 h 5.9003913 c 0.0026,0 0.0032,0.002 0.0059,0.002 0.846706,0 1.533203,-0.68578 1.533203,-1.53321 -3.05e-4,-0.846 -0.686497,-1.5332 -1.533203,-1.5332 h -0.002 -5.9042973 c -2.1453829,0 -3.890625,-1.74718 -3.890625,-3.89258 v -6.7832 h -0.00586 c 5.231e-4,-0.0114 0.00586,-0.0196 0.00586,-0.0293 0,-0.84745 -0.6864972,-1.535155 -1.5332031,-1.535155 z m 15.4121094,0 c -0.846716,0 -1.533203,0.687705 -1.533203,1.535155 0,0.009 0.002,0.0191 0.002,0.0293 h -0.002 v 6.7832 c 0,3.8363 3.120742,6.95703 6.957031,6.95703 h 5.900391 c 0.0026,0 0.0034,0.002 0.0039,0.002 0.846705,0 1.533203,-0.68578 1.533203,-1.53321 -3.04e-4,-0.84555 -0.68482,-1.53247 -1.53125,-1.5332 h -5.90625 c -2.145743,0 -3.890625,-1.74718 -3.890625,-3.89258 v -6.7832 h -0.0039 c 5.24e-4,-0.0114 0.0039,-0.0196 0.0039,-0.0293 0,-0.84745 -0.68578,-1.535155 -1.533203,-1.535155 z m 23.94336,0 c -0.846713,0 -1.533203,0.687705 -1.533203,1.535155 0,0.009 0.002,0.0191 0.002,0.0293 h -0.002 v 6.7832 c 0,3.8363 3.121098,6.95703 6.957031,6.95703 h 5.25 c 3.836284,0 6.955078,-3.12073 6.955078,-6.95703 v -6.7832 h -0.002 c 5.25e-4,-0.0114 0.002,-0.0196 0.002,-0.0293 h 0.002 c 0,-0.84745 -0.686502,-1.535155 -1.533203,-1.535155 -0.846702,0 -1.533203,0.687705 -1.533203,1.535155 0,0.009 0.002,0.0191 0.002,0.0293 h -0.002 v 6.7832 c 0,2.14538 -1.745249,3.89258 -3.890625,3.89258 h -5.25 c -2.145368,0 -3.890625,-1.7472 -3.890625,-3.89258 v -6.7832 h -0.0039 c 0,-0.0114 0.0039,-0.0196 0.0039,-0.0293 0,-0.84745 -0.686506,-1.535155 -1.533203,-1.535155 z m 22.333984,0 c -0.847418,0 -1.533203,0.687705 -1.533203,1.535155 v 0.002 12.23438 0.002 c 0,0.8467 0.685785,1.53516 1.533203,1.53516 0.846351,0 1.53247,-0.68651 1.533203,-1.5332 v -3.83008 h 10.248047 c 1.055169,0 2.587891,0.74345 2.587891,1.90625 v 1.91601 0.006 c 0,0.84673 0.686502,1.53516 1.533203,1.53516 0.846702,0 1.530537,-0.68648 1.53125,-1.5332 v -1.92383 c 0,-1.33886 -0.473402,-2.63349 -1.613281,-3.32617 0.957899,-0.74372 1.615234,-2.16166 1.615234,-3.55079 0,-2.92738 -2.045279,-4.970699 -4.972656,-4.970699 H 65.68038 Z m 37.244143,0 c 0,0 -0.002,0.002 -0.002,0.002 h -9.76562 c -3.835567,0 -6.955079,3.121072 -6.955079,6.957032 v 1.39062 c 0,3.83628 3.119864,6.95704 6.955079,6.95704 h 9.76172 c 0.002,0 0.006,0 0.006,0 0.84672,0 1.5332,-0.68577 1.5332,-1.53321 -4.5e-4,-0.84635 -0.68651,-1.53317 -1.5332,-1.5332 h -9.76758 c -1.857896,0 -3.412845,-1.31086 -3.796876,-3.05469 h 12.017576 c 0.003,0 0.007,0.002 0.008,0.002 0.84635,0 1.53125,-0.68581 1.53125,-1.53321 0,-0.84671 -0.6849,-1.5332 -1.53125,-1.5332 h -0.002 -12.021482 c 0.384122,-1.74417 1.938979,-3.05274 3.796875,-3.05274 h 9.763667 0.004 c 0.84669,0 1.5332,-0.68685 1.5332,-1.5332 0,-0.84744 -0.68651,-1.533202 -1.5332,-1.533202 z m -35.71094,3.066405 h 10.929688 c 0.712263,0 1.90625,0.24788 1.90625,1.90625 0,1.05053 -0.855362,1.90625 -1.90625,1.90625 H 67.21163 Z m -30.46875,8.89453 c -1.014767,0 -1.83789,0.82314 -1.83789,1.83789 0,1.01656 0.823123,1.83985 1.83789,1.83985 1.015473,0 1.837891,-0.82329 1.837891,-1.83985 0,-1.01475 -0.822066,-1.83789 -1.837891,-1.83789 z" />
</svg>
